<svg width="1237" height="247" viewBox="0 0 1237 247" fill="none" xmlns="http://www.w3.org/2000/svg">
<path d="M325.349 55.0989H424.709V76.8654H350.541V114.554H415.64V135.111H350.541V199H325.349V55.0989ZM434.136 55.0989H457.112V76.8654H434.136V55.0989ZM434.136 94.8027H457.112V199H434.136V94.8027ZM474.084 94.8027H495.649V114.957H496.052C496.724 112.135 498 109.381 499.881 106.694C501.897 104.006 504.248 101.588 506.935 99.4382C509.757 97.154 512.847 95.3401 516.206 93.9965C519.565 92.6529 522.991 91.9811 526.485 91.9811C529.172 91.9811 530.986 92.0483 531.926 92.1826C533.001 92.317 534.076 92.4514 535.151 92.5857V114.755C533.539 114.487 531.859 114.285 530.112 114.151C528.5 113.882 526.888 113.748 525.275 113.748C521.379 113.748 517.684 114.554 514.191 116.166C510.832 117.644 507.876 119.928 505.323 123.019C502.77 125.975 500.754 129.669 499.276 134.103C497.798 138.537 497.059 143.643 497.059 149.421V199H474.084V94.8027ZM554.209 165.544C554.881 172.262 557.434 176.965 561.868 179.652C566.302 182.339 571.609 183.683 577.79 183.683C579.939 183.683 582.358 183.548 585.045 183.28C587.867 182.877 590.487 182.205 592.905 181.264C595.324 180.324 597.272 178.98 598.75 177.233C600.362 175.352 601.101 172.934 600.967 169.978C600.833 167.022 599.758 164.603 597.742 162.722C595.727 160.841 593.107 159.363 589.882 158.288C586.792 157.079 583.231 156.072 579.201 155.265C575.17 154.459 571.072 153.586 566.906 152.645C562.607 151.705 558.442 150.563 554.411 149.219C550.514 147.875 546.954 146.062 543.729 143.777C540.639 141.493 538.153 138.605 536.272 135.111C534.391 131.483 533.45 127.049 533.45 121.809C533.45 116.166 534.794 111.464 537.481 107.701C540.303 103.805 543.796 100.715 547.961 98.4305C552.261 96.0119 556.964 94.3324 562.069 93.3919C567.31 92.4514 572.281 91.9811 576.984 91.9811C582.358 91.9811 587.464 92.5857 592.301 93.795C597.272 94.8699 601.706 96.6838 605.603 99.2366C609.633 101.789 612.925 105.149 615.478 109.314C618.165 113.345 619.845 118.249 620.517 124.026H596.533C595.458 118.517 592.905 114.823 588.875 112.941C584.978 111.06 580.477 110.12 575.371 110.12C573.759 110.12 571.811 110.254 569.526 110.523C567.377 110.792 565.294 111.329 563.279 112.135C561.398 112.807 559.785 113.882 558.442 115.36C557.098 116.704 556.426 118.517 556.426 120.802C556.426 123.623 557.367 125.907 559.248 127.654C561.263 129.401 563.816 130.879 566.906 132.088C570.131 133.163 573.759 134.103 577.79 134.91C581.821 135.716 585.986 136.589 590.285 137.53C594.451 138.47 598.549 139.612 602.579 140.956C606.61 142.299 610.171 144.113 613.261 146.397C616.486 148.682 619.039 151.57 620.92 155.064C622.935 158.557 623.943 162.857 623.943 167.963C623.943 174.143 622.532 179.383 619.71 183.683C616.889 187.982 613.194 191.476 608.626 194.163C604.192 196.85 599.22 198.798 593.712 200.008C588.203 201.217 582.761 201.822 577.387 201.822C570.803 201.822 564.689 201.083 559.046 199.605C553.537 198.127 548.7 195.91 544.535 192.954C540.504 189.863 537.28 186.101 534.861 181.667C532.577 177.099 531.368 171.725 531.233 165.544H554.209ZM622.845 94.8027H640.178V63.5636H663.154V94.8027H683.913V111.934H663.154V167.559C663.154 169.978 663.221 172.061 663.355 173.807C663.624 175.554 664.094 177.032 664.766 178.241C665.572 179.45 666.714 180.391 668.192 181.063C669.67 181.6 671.686 181.869 674.239 181.869C675.851 181.869 677.463 181.869 679.076 181.869C680.688 181.735 682.3 181.466 683.913 181.063V198.798C681.36 199.067 678.874 199.336 676.456 199.605C674.037 199.873 671.551 200.008 668.999 200.008C662.952 200.008 658.048 199.47 654.286 198.395C650.658 197.186 647.769 195.507 645.62 193.357C643.604 191.073 642.193 188.251 641.387 184.892C640.716 181.533 640.312 177.704 640.178 173.404V111.934H622.845V94.8027ZM695.201 55.0989H730.672L770.376 167.761H770.779L809.475 55.0989H844.543V199H820.56V87.9503H820.157L780.251 199H759.493L719.587 87.9503H719.184V199H695.201V55.0989ZM911.188 201.822C902.857 201.822 895.4 200.478 888.817 197.791C882.367 194.969 876.858 191.14 872.29 186.303C867.856 181.466 864.43 175.688 862.011 168.97C859.727 162.252 858.585 154.862 858.585 146.801C858.585 138.873 859.727 131.551 862.011 124.832C864.43 118.114 867.856 112.337 872.29 107.5C876.858 102.663 882.367 98.9007 888.817 96.2135C895.4 93.3919 902.857 91.9811 911.188 91.9811C919.518 91.9811 926.908 93.3919 933.357 96.2135C939.941 98.9007 945.45 102.663 949.884 107.5C954.452 112.337 957.878 118.114 960.162 124.832C962.581 131.551 963.79 138.873 963.79 146.801C963.79 154.862 962.581 162.252 960.162 168.97C957.878 175.688 954.452 181.466 949.884 186.303C945.45 191.14 939.941 194.969 933.357 197.791C926.908 200.478 919.518 201.822 911.188 201.822ZM911.188 183.683C916.293 183.683 920.727 182.608 924.49 180.458C928.252 178.308 931.342 175.487 933.76 171.993C936.179 168.5 937.926 164.603 939.001 160.304C940.21 155.87 940.814 151.369 940.814 146.801C940.814 142.367 940.21 137.933 939.001 133.499C937.926 129.065 936.179 125.168 933.76 121.809C931.342 118.316 928.252 115.494 924.49 113.345C920.727 111.195 916.293 110.12 911.188 110.12C906.082 110.12 901.648 111.195 897.886 113.345C894.124 115.494 891.034 118.316 888.615 121.809C886.197 125.168 884.383 129.065 883.173 133.499C882.098 137.933 881.561 142.367 881.561 146.801C881.561 151.369 882.098 155.87 883.173 160.304C884.383 164.603 886.197 168.5 888.615 171.993C891.034 175.487 894.124 178.308 897.886 180.458C901.648 182.608 906.082 183.683 911.188 183.683ZM964.551 94.8027H989.542L1015.94 174.815H1016.35L1041.74 94.8027H1065.52L1028.24 199H1002.44L964.551 94.8027ZM1142.83 137.731C1142.56 134.103 1141.75 130.61 1140.41 127.251C1139.2 123.892 1137.45 121.003 1135.17 118.585C1133.02 116.032 1130.33 114.016 1127.11 112.538C1124.02 110.926 1120.52 110.12 1116.63 110.12C1112.59 110.12 1108.9 110.859 1105.54 112.337C1102.32 113.68 1099.49 115.629 1097.08 118.182C1094.79 120.6 1092.91 123.489 1091.43 126.848C1090.09 130.207 1089.35 133.835 1089.22 137.731H1142.83ZM1089.22 152.847C1089.22 156.878 1089.75 160.774 1090.83 164.536C1092.04 168.298 1093.78 171.59 1096.07 174.412C1098.35 177.233 1101.24 179.518 1104.73 181.264C1108.23 182.877 1112.39 183.683 1117.23 183.683C1123.95 183.683 1129.32 182.272 1133.35 179.45C1137.52 176.494 1140.61 172.128 1142.62 166.35H1164.39C1163.18 171.993 1161.1 177.032 1158.14 181.466C1155.19 185.9 1151.63 189.662 1147.46 192.752C1143.3 195.708 1138.59 197.925 1133.35 199.403C1128.25 201.015 1122.87 201.822 1117.23 201.822C1109.03 201.822 1101.78 200.478 1095.46 197.791C1089.15 195.104 1083.77 191.341 1079.34 186.504C1075.04 181.667 1071.75 175.89 1069.46 169.172C1067.31 162.454 1066.24 155.064 1066.24 147.002C1066.24 139.612 1067.38 132.625 1069.67 126.042C1072.08 119.324 1075.44 113.479 1079.74 108.508C1084.18 103.402 1089.48 99.371 1095.66 96.415C1101.85 93.4591 1108.83 91.9811 1116.63 91.9811C1124.82 91.9811 1132.14 93.7278 1138.59 97.2212C1145.18 100.58 1150.62 105.081 1154.92 110.725C1159.22 116.368 1162.31 122.884 1164.19 130.274C1166.2 137.53 1166.74 145.054 1165.8 152.847H1089.22ZM1175.21 94.8027H1196.77V114.957H1197.17C1197.85 112.135 1199.12 109.381 1201 106.694C1203.02 104.006 1205.37 101.588 1208.06 99.4382C1210.88 97.154 1213.97 95.3401 1217.33 93.9965C1220.69 92.6529 1224.11 91.9811 1227.61 91.9811C1230.29 91.9811 1232.11 92.0483 1233.05 92.1826C1234.12 92.317 1235.2 92.4514 1236.27 92.5857V114.755C1234.66 114.487 1232.98 114.285 1231.24 114.151C1229.62 113.882 1228.01 113.748 1226.4 113.748C1222.5 113.748 1218.81 114.554 1215.31 116.166C1211.95 117.644 1209 119.928 1206.45 123.019C1203.89 125.975 1201.88 129.669 1200.4 134.103C1198.92 138.537 1198.18 143.643 1198.18 149.421V199H1175.21V94.8027Z" fill="#0171E5"/>
<path d="M50.8291 195.115C58.9005 195.115 62.1186 194.688 66.5303 192.624C70.1907 190.912 74.1601 187.722 77.8379 183.817C81.2994 180.142 84.5703 175.761 87.1455 171.214L87.6504 170.303L87.6533 170.298L89.9004 166.112C94.9486 156.667 98.6286 149.49 101.029 144.412C102.398 141.516 103.369 139.264 103.939 137.649C104.222 136.849 104.428 136.146 104.524 135.57C104.572 135.284 104.603 134.967 104.579 134.654C104.557 134.369 104.474 133.879 104.1 133.457L104.028 133.376L103.946 133.307C103.725 133.12 103.495 133.031 103.404 132.997C103.283 132.952 103.163 132.919 103.061 132.894C102.854 132.844 102.611 132.801 102.354 132.764C101.832 132.688 101.128 132.616 100.272 132.546C98.5548 132.405 96.1356 132.267 93.1387 132.14C87.1398 131.886 78.774 131.672 68.9658 131.565H68.9648C53.1368 131.405 44.8062 131.35 40.2578 131.58C38.0053 131.693 36.526 131.881 35.4854 132.226C34.9362 132.408 34.4802 132.642 34.084 132.949C33.6941 133.251 33.4192 133.58 33.2041 133.86L33.1895 133.879L33.1758 133.899C32.666 134.609 32.2396 135.45 31.9385 136.244C31.6476 137.01 31.42 137.874 31.4199 138.618C31.4199 139.491 31.883 140.155 32.4336 140.598C32.9514 141.015 33.6237 141.31 34.3457 141.539C35.8031 142.002 37.9411 142.34 40.793 142.595C46.5303 143.109 55.5733 143.322 68.8447 143.322C75.1007 143.322 80.0748 143.428 83.5264 143.613C85.2569 143.705 86.5756 143.817 87.4717 143.939C87.5116 143.944 87.5503 143.952 87.5879 143.957C87.5739 143.999 87.5623 144.042 87.5469 144.086C87.2551 144.918 86.7719 146.069 86.1318 147.462C84.8562 150.239 83.0154 153.86 81.0088 157.582C79.0035 161.302 76.844 165.103 74.9346 168.24C72.9941 171.427 71.3919 173.792 70.4893 174.754L70.4873 174.756C68.6896 176.68 65.2269 179.467 62.7314 180.883L62.7021 180.901C60.7004 182.097 59.3867 182.724 57.748 183.086C56.0564 183.461 53.9415 183.572 50.3027 183.572C46.6098 183.572 44.5019 183.46 42.7783 183.063C41.099 182.676 39.7049 181.998 37.4746 180.684L37.4756 180.683C30.1723 176.365 25.308 170.942 21.21 162.429L21.2109 162.428C15.5273 150.487 13.3497 140.354 13.3496 124.202C13.3496 67.3585 50.8633 22.9459 105.834 14.7299H105.833C117.962 12.9439 133.996 13.6797 146.783 16.6303C152.091 17.8848 159.002 20.3838 164.595 22.8549C167.391 24.0906 169.815 25.3002 171.52 26.3217C172.018 26.6205 172.437 26.8957 172.779 27.1391C172.757 27.148 172.735 27.1574 172.713 27.1664C171.61 27.611 170.057 28.1546 168.31 28.6762V28.6752C158.852 31.3441 151.408 35.1857 144.668 41.5493C137.961 47.8821 132.023 56.6471 125.462 69.0366V69.0356C119.775 79.7643 115.146 88.3222 111.81 94.2739C110.14 97.2517 108.802 99.5646 107.819 101.166C107.327 101.97 106.935 102.576 106.643 102.992C106.553 103.119 106.477 103.221 106.415 103.301C106.36 103.309 106.298 103.319 106.227 103.328C105.809 103.376 105.199 103.426 104.404 103.475C102.82 103.574 100.577 103.667 97.8379 103.747C92.3637 103.906 84.951 104.013 76.9561 104.013H46.8682L46.4463 104.815L44.7607 108.018L44.7432 108.053C44.3618 108.826 44.0274 109.5 43.8174 110.047C43.6238 110.551 43.3933 111.282 43.6006 112.046C43.8331 112.903 44.4798 113.366 44.96 113.632C45.4309 113.894 46.0598 114.136 46.7021 114.386L46.7148 114.39L46.8721 114.445C47.2562 114.565 47.7476 114.642 48.2324 114.702C48.8375 114.776 49.6059 114.844 50.5166 114.904C52.3408 115.024 54.8009 115.121 57.7988 115.195C63.7982 115.342 72.0054 115.396 81.7051 115.342H81.7119L113.423 115.022L114.284 115.013L114.711 114.265L117.444 109.469L118.689 107.298C121.307 102.686 124.804 96.2377 131.263 84.1371L134.749 77.5981L134.751 77.5932L136.341 74.6C143.965 60.3351 146.955 56.2922 153.188 50.5561L153.668 50.1235C163.464 41.4003 175.405 37.2552 190.241 37.7475L191.71 37.811C194.114 37.9727 196.327 38.001 197.963 37.9174C198.773 37.876 199.496 37.8045 200.046 37.6918C200.307 37.6382 200.623 37.5576 200.907 37.4194C201.048 37.351 201.264 37.2293 201.463 37.0229C201.675 36.8029 201.928 36.4171 201.928 35.8862C201.928 35.4447 201.739 35.1134 201.69 35.0268C201.609 34.8823 201.515 34.7529 201.436 34.6508C201.273 34.4422 201.062 34.2112 200.834 33.976C200.371 33.4988 199.727 32.8941 198.974 32.2162C197.46 30.8549 195.428 29.1326 193.329 27.4213C191.23 25.7098 189.048 23.9954 187.231 22.6508C186.324 21.9794 185.495 21.3913 184.808 20.9389C184.183 20.5278 183.545 20.1432 183.05 19.9614L183.051 19.9604C182.748 19.8453 181.93 19.4249 180.75 18.7787C179.616 18.1575 178.255 17.3879 176.938 16.6401C165.246 9.68794 149.671 4.73106 133.302 2.68304L133.303 2.68207C122.511 1.27404 116.368 1.387 104.35 3.11176V3.11078C89.739 5.16475 81.3738 7.8876 66.5117 14.9897V14.9907C40.864 27.2319 19.3198 51.1356 9.0752 78.8227L8.52246 80.311C5.82423 87.6477 4.10682 93.4453 3.04883 99.5991C1.92179 106.155 1.55283 113.059 1.5 122.591V122.599L1.50391 125.337C1.54647 138.385 1.95037 142.095 3.97363 149.683L3.97461 149.688L4.23828 150.646C9.84643 170.679 20.3466 185.624 33.542 191.873L33.5449 191.875L34.624 192.375C37.0551 193.483 38.9305 194.177 41.1289 194.582C43.6008 195.038 46.4192 195.115 50.8291 195.115Z" fill="#0171E5" stroke="#0171E5" stroke-width="3"/>
<path d="M78.8076 236.526C105.038 247.113 134.375 248.377 159.859 240.082L161.089 239.674L161.091 239.673L162.502 239.183C191.599 228.869 215.796 207.47 230.062 179.616L230.745 178.264L230.747 178.26L231.16 177.403C235.299 168.65 239.593 154.2 241.546 142.962L241.733 141.85L241.734 141.841L241.88 140.885C244.835 120.726 241.751 95.4389 234.216 80.5928L234.215 80.5938C227.869 67.8431 217.822 57.9284 206.661 53.6025L206.66 53.6035C202.97 52.1132 197.929 51.5231 192.918 51.6729C187.884 51.8234 182.692 52.7256 178.688 54.3604L178.679 54.3633L178.669 54.3672C171.434 57.4319 166.031 61.3125 162.146 66.4883V66.4893C161.2 67.7422 159.223 71.0954 156.852 75.3125C154.449 79.5851 151.576 84.8648 148.813 90.0576C146.051 95.2502 143.395 100.366 141.427 104.308C140.444 106.277 139.626 107.965 139.052 109.228C138.766 109.857 138.532 110.398 138.367 110.823C138.285 111.035 138.213 111.237 138.158 111.419C138.128 111.52 138.075 111.703 138.051 111.915L138.037 112.134L138.043 112.285C138.099 113.024 138.556 113.533 139 113.827C139.425 114.108 139.953 114.281 140.482 114.408C141.569 114.669 143.244 114.865 145.69 115.032C150.619 115.369 159.058 115.609 173.109 115.876L179.915 116.021C186.545 116.15 192.578 116.23 197.368 116.25C200.559 116.263 203.209 116.25 205.119 116.206C206.072 116.184 206.857 116.155 207.439 116.115C207.728 116.096 207.988 116.073 208.202 116.044C208.309 116.029 208.424 116.01 208.535 115.985C208.602 115.97 208.733 115.939 208.881 115.879C209.683 115.568 210.36 114.881 210.854 114.271C211.392 113.606 211.895 112.802 212.303 111.998C212.708 111.199 213.05 110.336 213.23 109.546C213.32 109.152 213.382 108.725 213.368 108.306C213.356 107.942 213.28 107.464 213.008 107.018C212.778 106.607 212.429 106.423 212.357 106.385C212.201 106.301 212.051 106.25 211.954 106.221C211.75 106.159 211.517 106.113 211.295 106.076C210.836 106 210.212 105.93 209.464 105.864C207.957 105.731 205.825 105.603 203.238 105.482C199.353 105.302 194.404 105.136 188.925 104.997L183.289 104.867C175.559 104.707 168.438 104.441 163.202 104.162C160.582 104.022 158.446 103.88 156.945 103.747C156.582 103.715 156.261 103.684 155.982 103.654C156.233 102.916 156.636 101.914 157.174 100.699C158.335 98.0774 160.053 94.6027 161.974 90.9541C165.6 84.067 169.843 76.7609 172.353 73.4336L172.831 72.8223L172.84 72.8125L173.332 72.2119C175.804 69.2708 178.427 67.2248 181.513 65.8809C184.82 64.4407 188.76 63.7627 193.793 63.7627C197.315 63.7627 199.56 63.872 201.409 64.2295C203.213 64.5784 204.697 65.1757 206.664 66.249L206.682 66.2588L206.699 66.2676C210.964 68.4542 215.345 72.8416 219.191 78.7158C223.023 84.5675 226.251 91.7859 228.267 99.4854L228.27 99.4961L228.391 99.9658C229.625 104.962 230.271 114.315 230.271 123.854C230.271 133.698 229.583 143.405 228.268 148.38L228.266 148.386C220.131 179.676 203.379 203.455 179.216 218.067V218.068C170.553 223.251 157.765 228.713 151.043 230.055L151.034 230.056L151.024 230.058C126.592 235.244 111.262 234.814 89.9404 228.278L89.9414 228.277C85.9169 227.022 81.1147 225.05 77.3242 223.208C75.4266 222.286 73.8196 221.414 72.7051 220.698C72.494 220.563 72.3079 220.436 72.1445 220.32C72.6715 220.105 73.3669 219.896 74.1719 219.732L74.585 219.653L74.5918 219.652L75.2041 219.529C78.3408 218.841 82.6087 217.057 86.7539 214.887C90.9198 212.706 95.1242 210.048 98.123 207.522L98.7061 207.02L98.7129 207.013L99.3262 206.452C105.636 200.559 111.3 191.393 124.431 166.012L126.753 161.589C129.019 157.283 131.092 153.373 132.759 150.274C133.87 148.208 134.798 146.508 135.478 145.295C135.818 144.687 136.092 144.21 136.294 143.873C136.317 143.835 136.339 143.799 136.359 143.766C136.374 143.764 136.389 143.761 136.404 143.759C136.801 143.706 137.391 143.653 138.173 143.602C139.729 143.5 141.951 143.414 144.709 143.348C150.22 143.215 157.815 143.162 166.391 143.215L196.416 143.429L197.459 143.436L197.829 142.46L198.883 139.684L198.895 139.65C199.164 138.886 199.437 138.057 199.645 137.341C199.748 136.984 199.84 136.64 199.907 136.339C199.967 136.073 200.033 135.726 200.033 135.414C200.033 134.679 199.672 134.085 199.155 133.683C198.709 133.335 198.142 133.12 197.57 132.964C196.407 132.647 194.608 132.416 191.967 132.223C186.638 131.832 177.429 131.565 161.902 131.245L161.898 131.244L132.084 130.711L131.42 130.699L130.965 131.182L128.753 133.531L128.722 133.564L128.693 133.599C128.014 134.413 126.628 136.65 124.992 139.466C123.531 141.981 121.808 145.069 120.089 148.28L119.354 149.663C98.5393 188.969 97.3002 190.919 90.8945 196.896L90.8838 196.906L90.873 196.917C88.4246 199.295 84.3116 202.419 81.8018 203.844L81.7891 203.851L81.7773 203.857C78.523 205.786 73.6962 207.585 68.6221 208.874C63.5517 210.162 58.3776 210.906 54.4541 210.805L54.4551 210.804C51.5788 210.724 49.3684 210.656 47.7979 210.68C47.014 210.692 46.3325 210.727 45.7783 210.808C45.2945 210.878 44.6253 211.014 44.1113 211.427C43.8079 211.67 43.5339 212.03 43.4258 212.509C43.3228 212.965 43.4055 213.373 43.5137 213.668C43.71 214.204 44.1038 214.675 44.4414 215.037C45.1553 215.803 46.3342 216.809 47.7422 218.028L47.751 218.036L48.4053 218.585C55.3685 224.318 68.4354 232.126 77.5293 236.002L77.54 236.007L78.8076 236.526Z" fill="#0171E5" stroke="#0171E5" stroke-width="3"/>
</svg>
